<?xml version="1.0" encoding="iso-8859-1"?>
<!-- Generator: Adobe Illustrator 18.1.1, SVG Export Plug-In . SVG Version: 6.00 Build 0)  -->
<svg version="1.1" id="Capa_1" xmlns="http://www.w3.org/2000/svg" xmlns:xlink="http://www.w3.org/1999/xlink" x="0px" y="0px"
	 viewBox="0 0 325.663 325.663" style="enable-background:new 0 0 325.663 325.663;" xml:space="preserve">
<g>
	<path style="fill:#AB7C94;" d="M152.615,199.824l-25.384-25.384c-16.535,7.147-37.774,22.355-58.258,42.844
		c-21.348,21.348-39.689,46.254-46.422,63.06l24.166,24.166c16.807-6.734,41.707-25.069,63.061-46.422
		C130.255,237.598,145.462,216.359,152.615,199.824z"/>
	<polygon style="fill:#AB7C94;" points="18.384,290.374 0,325.608 35.61,307.224 	"/>
	<path style="fill:#AB7C94;" d="M301.292,4.235l-18.368,18.368l20.19,20.195l18.368-18.368c5.575-5.575,5.575-14.615,0-20.19
		C315.906-1.34,306.867-1.34,301.292,4.235z"/>
	<path style="fill:#AB7C94;" d="M277.496,24.768L133.877,168.381l24.628,24.628l49.267-49.267c-0.364,4.297,4.003,8.849,8.664,5.847
		c35.18-22.648,67.76-50.311,94.319-82.712c4.792-5.847-3.525-14.261-8.36-8.36c-0.098,0.12-0.207,0.234-0.305,0.359l-4.721-4.721
		l4.759-4.759L277.496,24.768z M215.496,136.018l63.403-63.403l5.798,5.798C263.952,100.175,240.51,119.424,215.496,136.018z"/>
</g>
<g>
</g>
<g>
</g>
<g>
</g>
<g>
</g>
<g>
</g>
<g>
</g>
<g>
</g>
<g>
</g>
<g>
</g>
<g>
</g>
<g>
</g>
<g>
</g>
<g>
</g>
<g>
</g>
<g>
</g>
</svg>
