<svg height="512pt" viewBox="0 0 512 512" width="512pt" xmlns="http://www.w3.org/2000/svg"><path style="fill:#AB7C94;" d="m125.867188 512h-98.132813c-15.292969 0-27.734375-12.441406-27.734375-27.734375v-456.53125c0-15.292969 12.441406-27.734375 27.734375-27.734375h125.867187v484.265625c0 15.292969-12.441406 27.734375-27.734374 27.734375zm-98.132813-494.933594c-5.878906 0-10.667969 4.789063-10.667969 10.667969v456.53125c0 5.878906 4.789063 10.667969 10.667969 10.667969h98.132813c5.878906 0 10.667968-4.789063 10.667968-10.667969v-467.199219zm0 0"/><path style="fill:#AB7C94;" d="m484.265625 153.601562h-347.730469v-153.601562h347.730469c15.292969 0 27.734375 12.441406 27.734375 27.734375v98.132813c0 15.292968-12.441406 27.734374-27.734375 27.734374zm-330.664063-17.066406h330.664063c5.878906 0 10.667969-4.789062 10.667969-10.667968v-98.132813c0-5.878906-4.789063-10.667969-10.667969-10.667969h-330.664063zm0 0"/><path style="fill:#AB7C94;" d="m42.667969 59.734375h-34.132813c-4.710937 0-8.535156-3.824219-8.535156-8.535156 0-4.710938 3.824219-8.53125 8.535156-8.53125h34.132813c4.710937 0 8.53125 3.820312 8.53125 8.53125 0 4.710937-3.820313 8.535156-8.53125 8.535156zm0 0"/><path style="fill:#AB7C94;" d="m68.265625 110.933594h-59.730469c-4.710937 0-8.535156-3.824219-8.535156-8.535156 0-4.707032 3.824219-8.53125 8.535156-8.53125h59.730469c4.710937 0 8.535156 3.824218 8.535156 8.53125 0 4.710937-3.824219 8.535156-8.535156 8.535156zm0 0"/><path style="fill:#AB7C94;" d="m42.667969 162.132812h-34.132813c-4.710937 0-8.535156-3.824218-8.535156-8.53125 0-4.710937 3.824219-8.535156 8.535156-8.535156h34.132813c4.710937 0 8.53125 3.824219 8.53125 8.535156 0 4.707032-3.820313 8.53125-8.53125 8.53125zm0 0"/><path style="fill:#AB7C94;" d="m68.265625 213.332031h-59.730469c-4.710937 0-8.535156-3.820312-8.535156-8.53125 0-4.710937 3.824219-8.535156 8.535156-8.535156h59.730469c4.710937 0 8.535156 3.824219 8.535156 8.535156 0 4.710938-3.824219 8.53125-8.535156 8.53125zm0 0"/><path style="fill:#AB7C94;" d="m42.667969 264.535156h-34.132813c-4.710937 0-8.535156-3.824218-8.535156-8.535156s3.824219-8.535156 8.535156-8.535156h34.132813c4.710937 0 8.53125 3.824218 8.53125 8.535156s-3.820313 8.535156-8.53125 8.535156zm0 0"/><path style="fill:#AB7C94;" d="m68.265625 315.734375h-59.730469c-4.710937 0-8.535156-3.824219-8.535156-8.535156 0-4.710938 3.824219-8.53125 8.535156-8.53125h59.730469c4.710937 0 8.535156 3.820312 8.535156 8.53125 0 4.710937-3.824219 8.535156-8.535156 8.535156zm0 0"/><path style="fill:#AB7C94;" d="m42.667969 366.933594h-34.132813c-4.710937 0-8.535156-3.824219-8.535156-8.535156 0-4.707032 3.824219-8.53125 8.535156-8.53125h34.132813c4.710937 0 8.53125 3.824218 8.53125 8.53125 0 4.710937-3.820313 8.535156-8.53125 8.535156zm0 0"/><path style="fill:#AB7C94;" d="m68.265625 418.132812h-59.730469c-4.710937 0-8.535156-3.824218-8.535156-8.53125 0-4.710937 3.824219-8.535156 8.535156-8.535156h59.730469c4.710937 0 8.535156 3.824219 8.535156 8.535156 0 4.707032-3.824219 8.53125-8.535156 8.53125zm0 0"/><path style="fill:#AB7C94;" d="m42.667969 469.332031h-34.132813c-4.710937 0-8.535156-3.820312-8.535156-8.53125 0-4.710937 3.824219-8.535156 8.535156-8.535156h34.132813c4.710937 0 8.53125 3.824219 8.53125 8.535156 0 4.710938-3.820313 8.53125-8.53125 8.53125zm0 0"/><path style="fill:#AB7C94;" d="m452.265625 51.199219c-4.710937 0-8.53125-3.820313-8.53125-8.53125v-34.132813c0-4.710937 3.820313-8.535156 8.53125-8.535156s8.535156 3.824219 8.535156 8.535156v34.132813c0 4.710937-3.824219 8.53125-8.535156 8.53125zm0 0"/><path style="fill:#AB7C94;" d="m401.066406 76.800781c-4.710937 0-8.53125-3.824219-8.53125-8.535156v-59.730469c0-4.710937 3.820313-8.535156 8.53125-8.535156 4.710938 0 8.535156 3.824219 8.535156 8.535156v59.730469c0 4.710937-3.824218 8.535156-8.535156 8.535156zm0 0"/><path style="fill:#AB7C94;" d="m349.867188 51.199219c-4.710938 0-8.535157-3.820313-8.535157-8.53125v-34.132813c0-4.710937 3.824219-8.535156 8.535157-8.535156 4.710937 0 8.53125 3.824219 8.53125 8.535156v34.132813c0 4.710937-3.820313 8.53125-8.53125 8.53125zm0 0"/><path style="fill:#AB7C94;" d="m298.667969 76.800781c-4.710938 0-8.535157-3.824219-8.535157-8.535156v-59.730469c0-4.710937 3.824219-8.535156 8.535157-8.535156 4.710937 0 8.53125 3.824219 8.53125 8.535156v59.730469c0 4.710937-3.820313 8.535156-8.53125 8.535156zm0 0"/><path style="fill:#AB7C94;" d="m247.464844 51.199219c-4.707032 0-8.53125-3.820313-8.53125-8.53125v-34.132813c0-4.710937 3.824218-8.535156 8.53125-8.535156 4.710937 0 8.535156 3.824219 8.535156 8.535156v34.132813c0 4.710937-3.824219 8.53125-8.535156 8.53125zm0 0"/><path style="fill:#AB7C94;" d="m196.265625 76.800781c-4.710937 0-8.53125-3.824219-8.53125-8.535156v-59.730469c0-4.710937 3.820313-8.535156 8.53125-8.535156s8.535156 3.824219 8.535156 8.535156v59.730469c0 4.710937-3.824219 8.535156-8.535156 8.535156zm0 0"/></svg>