<?xml version="1.0" standalone="no"?>
<!DOCTYPE svg PUBLIC "-//W3C//DTD SVG 20010904//EN"
 "http://www.w3.org/TR/2001/REC-SVG-20010904/DTD/svg10.dtd">
<svg version="1.0" xmlns="http://www.w3.org/2000/svg"
 width="50.000000pt" height="50.000000pt" viewBox="0 0 50.000000 50.000000"
 preserveAspectRatio="xMidYMid meet">
<metadata>
Created by potrace 1.15, written by Peter Selinger 2001-2017
</metadata>
<g transform="translate(0.000000,50.000000) scale(0.100000,-0.100000)"
fill="#000000" stroke="none">
<path style="fill:#AB7C94;" d="M209 479 c-8 -16 -8 -28 0 -46 10 -22 10 -25 -5 -19 -12 5 -30 -7
-60 -39 -92 -95 -94 -123 -11 -153 47 -17 55 -25 85 -81 23 -42 39 -61 53 -61
25 0 24 20 -3 98 -17 50 -29 67 -53 79 -42 22 -42 20 -11 52 l28 29 61 -19
c82 -25 99 -25 95 2 -2 17 -21 29 -83 53 -70 27 -76 31 -51 36 36 6 51 29 42
63 -5 23 -12 27 -41 27 -25 0 -37 -6 -46 -21z"/>
<path style="fill:#AB7C94;" d="M353 276 c-100 -45 -64 -196 47 -196 56 0 91 33 97 91 5 41 2 50 -23
78 -34 37 -77 46 -121 27z m76 -31 c48 -24 55 -72 16 -110 -42 -43 -106 -23
-121 37 -5 22 0 33 24 58 35 34 42 36 81 15z"/>
<path style="fill:#AB7C94;" d="M48 194 c-36 -19 -48 -43 -48 -94 0 -33 6 -48 29 -71 64 -64 171 -20
171 71 0 50 -22 85 -62 99 -40 14 -57 13 -90 -5z m105 -46 c23 -28 22 -67 -5
-95 -43 -46 -118 -13 -118 53 0 66 79 94 123 42z"/>
</g>
</svg>
