<?xml version="1.0" encoding="iso-8859-1"?>
<!-- Generator: Adobe Illustrator 16.0.0, SVG Export Plug-In . SVG Version: 6.00 Build 0)  -->
<!DOCTYPE svg PUBLIC "-//W3C//DTD SVG 1.1//EN" "http://www.w3.org/Graphics/SVG/1.1/DTD/svg11.dtd">
<svg version="1.1" id="Capa_1" xmlns="http://www.w3.org/2000/svg" xmlns:xlink="http://www.w3.org/1999/xlink" x="0px" y="0px"
	 width="70.074px" height="70.074px" viewBox="0 0 70.074 70.074" style="enable-background:new 0 0 70.074 70.074;"
	 xml:space="preserve">
<g>
	<g>
		<path d="M39.38,40.773c-0.659-0.454-1.913-0.938-3.761-1.457v-5.819c1.098,0.04,1.896,0.463,2.398,1.266
			c0.269,0.439,0.436,0.96,0.487,1.565h2.092c-0.043-1.35-0.483-2.437-1.329-3.258c-0.845-0.824-2.069-1.29-3.65-1.401v-1.565
			h-1.133v1.587c-1.603,0.018-2.848,0.512-3.735,1.482c-0.887,0.972-1.329,2.064-1.329,3.273c0,1.355,0.406,2.409,1.23,3.176
			c0.825,0.767,2.098,1.313,3.833,1.638v6.51c-1.351-0.114-2.275-0.62-2.775-1.519c-0.276-0.5-0.447-1.299-0.517-2.387h-2.109
			c0,1.373,0.226,2.457,0.68,3.26c0.827,1.489,2.396,2.311,4.721,2.462v2.321h1.133v-2.321c1.438-0.158,2.541-0.484,3.307-0.977
			c1.378-0.895,2.066-2.396,2.066-4.52C40.993,42.628,40.452,41.52,39.38,40.773z M34.486,39.088
			c-0.898-0.176-1.603-0.488-2.126-0.931c-0.528-0.447-0.79-1.065-0.79-1.853c0-0.652,0.224-1.277,0.665-1.873
			c0.445-0.599,1.201-0.916,2.25-0.956V39.088z M38.436,46.337c-0.516,0.936-1.455,1.433-2.817,1.497v-6.282
			c0.995,0.271,1.701,0.557,2.124,0.862c0.734,0.518,1.102,1.272,1.102,2.268C38.844,45.307,38.705,45.86,38.436,46.337z"/>
		<path d="M63.737,17.097H47.982v-3.484c0-4.658-3.791-8.449-8.449-8.449h-8.992c-4.658,0-8.449,3.791-8.449,8.449v3.484H6.337
			C2.853,17.097,0,19.95,0,23.433v35.142c0,3.483,2.853,6.335,6.337,6.335h57.4c3.485,0,6.337-2.852,6.337-6.335V23.433
			C70.074,19.95,67.223,17.097,63.737,17.097z M26.32,13.613c0-2.329,1.897-4.224,4.226-4.224h8.993
			c2.326,0,4.227,1.895,4.227,4.224v3.484H26.322v-3.484H26.32z M35.037,54.736c-7.583,0-13.732-6.147-13.732-13.728
			c0-7.586,6.149-13.734,13.732-13.734c7.587,0,13.732,6.148,13.732,13.734C48.77,48.589,42.624,54.736,35.037,54.736z"/>
	</g>
</g>
<g>
</g>
<g>
</g>
<g>
</g>
<g>
</g>
<g>
</g>
<g>
</g>
<g>
</g>
<g>
</g>
<g>
</g>
<g>
</g>
<g>
</g>
<g>
</g>
<g>
</g>
<g>
</g>
<g>
</g>
</svg>
